<svg xmlns="http://www.w3.org/2000/svg" width="194.029" height="190.173" viewBox="0 0 194.029 190.173">
  <g id="Group_53678" data-name="Group 53678" transform="translate(-117.341 -178.646)">
    <g id="language-translation" transform="translate(117.341 178.646)">
      <path id="Path_144286" data-name="Path 144286" d="M203.03,397.718H9v1.842H203.03Z" transform="translate(-9.001 -209.387)" fill="#1a3a49"/>
      <path id="Path_144287" data-name="Path 144287" d="M232.155,72.055H156.4a9.867,9.867,0,0,0-9.867,9.867V230.588a9.867,9.867,0,0,0,9.867,9.867h75.758a9.867,9.867,0,0,0,9.867-9.867V81.922A9.867,9.867,0,0,0,232.155,72.055Z" transform="translate(-127.427 -72.055)" fill="#b3b3b3"/>
      <path id="Path_144288" data-name="Path 144288" d="M236.434,72.055H160.677a9.867,9.867,0,0,0-9.867,9.867V230.588a9.867,9.867,0,0,0,9.867,9.867h75.757a9.867,9.867,0,0,0,9.867-9.867V81.922A9.867,9.867,0,0,0,236.434,72.055Z" transform="translate(-134.179 -72.055)" fill="#093a5a"/>
      <path id="Path_144289" data-name="Path 144289" d="M244.567,235.781s0,0,0,0V102.186H161.958V235.781Z" transform="translate(-138.888 -84.783)" fill="#e5fffd"/>
      <circle id="Ellipse_301" data-name="Ellipse 301" cx="2.147" cy="2.147" r="2.147" transform="translate(62.23 5.061)" fill="#d6e6ef"/>
      <path id="Path_144290" data-name="Path 144290" d="M219.269,92.759a1.119,1.119,0,0,0,1.123,1.119H234.56a1.121,1.121,0,0,0,0-2.242H220.392A1.123,1.123,0,0,0,219.269,92.759Z" transform="translate(-163.097 -80.326)" fill="#d6e6ef"/>
      <circle id="Ellipse_302" data-name="Ellipse 302" cx="4.025" cy="4.025" r="4.025" transform="translate(60.352 155.942)" fill="#fff"/>
      <path id="Path_144299" data-name="Path 144299" d="M153.655,264.159c1.4,2.247,15.714,8.785,15.714,8.785l6.369-8.762s-5.687-10.41-7.74-10.464c-2.03-.048,0,5.429,0,5.429-.932-.8-7.87-6.7-8.637-4.483-.28.8.679,2.592,1.231,3.2-2.086-1.323-5.414-2.652-5.851-1.587-.609,1.482,1.967,3.026,2.892,3.524-.962-.475-3.792-1.728-4.089-.156-.181.957,1.958,2.247,2.894,2.923C155.582,262.331,152.738,262.7,153.655,264.159Z" transform="translate(-65.154 -148.793)" fill="#fec3bd"/>
      <path id="Path_144300" data-name="Path 144300" d="M68.061,270.75s14.734,20.057,25.3,22.079a8.217,8.217,0,0,0,1.586.158c6.047-.016,14.363-8.12,20.744-15.59,5.454-6.381,9.5-12.3,9.5-12.3l-11.6-18.311c-4.4,3.908-12.855,15.277-21,25.528l-16.4-12.27L68.06,270.75Z" transform="translate(34.728 -145.864)" fill="#006499"/>
      <path id="Path_144301" data-name="Path 144301" d="M84.5,301.524a8.212,8.212,0,0,0,1.586.158c6.047-.016,14.363-8.12,20.744-15.59-1.622-4.328-6.715-18.722-6.715-18.722S93.667,294.455,84.5,301.524Z" transform="translate(43.586 -154.56)" fill="#074c71"/>
      <path id="Path_144302" data-name="Path 144302" d="M58.69,383.654l.349-20.035,23.712.888-2.074,19.147Z" transform="translate(82.579 -195.217)" fill="#fe8b70"/>
      <path id="Path_144303" data-name="Path 144303" d="M60.8,384.3,58.69,365.156h10.3L66.919,384.3Z" transform="translate(96.337 -195.866)" fill="#070d2b"/>
      <path id="Path_144304" data-name="Path 144304" d="M28.337,384.3l-2.1-19.145h26.63V384.3Z" transform="translate(131.215 -195.868)" fill="#fe8b70"/>
      <path id="Path_144305" data-name="Path 144305" d="M60.977,310.14c-.244-6.586-.466-14.708-.211-17.608.552-6.309,3.025-15.5,4.4-24.16,1.261-7.868,1.613-15.291-1.2-19.707-2.608-4.1-16.265-6.694-16.265-6.694l-12.189-.728s-10.6.181-13.574,5.376c-4.571,7.975-4.454,34.9-4.454,34.9s-2.069,33.408-2.357,37.618H61.361c-.059-1.164-.228-4.762-.384-8.993Z" transform="translate(124.374 -143.524)" fill="#093a5a"/>
      <path id="Path_144306" data-name="Path 144306" d="M66.184,170.7s-1.88,10.21,4.4,14.02c4.889,2.968,5.61-6.866,5.69-11.358a.957.957,0,0,0-1.588-.735l-4.214,3.688" transform="translate(84.884 -113.724)" fill="#06112d"/>
      <path id="Path_144307" data-name="Path 144307" d="M40.769,236.395c6-.28,11.319-6.809,11.327-7.006.222-4.7,1.238-15.54,2.238-18.9a.923.923,0,0,0-1.117-1.2l-14.724,4.918a.965.965,0,0,0-.594,1.152,20.629,20.629,0,0,1,.41,2.277c.033.269.059.534.084.8a24.917,24.917,0,0,1-.214,5.787c-.05.327-.113.9-.188,1.551v0c-.18,1.681-.243,2.686-.31,2.932-.034.121-.3,7.845,3.088,7.686Z" transform="translate(123.096 -130.006)" fill="#fec3bd"/>
      <path id="Path_144308" data-name="Path 144308" d="M49,231.793v0s8.158-3.221,9.6-5.988c1.9-3.653-8-1.883-8-1.883s-.519.229-1.193.529a24.917,24.917,0,0,1-.214,5.787c-.05.327-.113.9-.188,1.551Z" transform="translate(112.09 -136.027)" fill="#f18b89"/>
      <path id="Path_144309" data-name="Path 144309" d="M34.068,206.287c8.676,2.338,16.422-6.4,18.543-10.033v0q.406-.7.761-1.419a.933.933,0,0,1,.323-.371c1.121-.751,6.2-4.371,4.922-7.583-.832-2.091-2.254-2.337-3.3-2.177a.948.948,0,0,1-1.07-1.064c2.256-16.773-16.217-16.046-21.3-8.476a9.64,9.64,0,0,0-.682,1.215c-3.308,6.764-7.517,27.4,1.8,29.913Z" transform="translate(124.01 -113.442)" fill="#fec3bd"/>
      <path id="Path_144310" data-name="Path 144310" d="M20.07,172.42c2.166,7.172,19.947-2.392,19.2.822-.55,2.376,1.673,3.2,2.869,3.466a.951.951,0,0,1,.739.9l.142,4.808a.958.958,0,0,0,1.856.3l.741-2.019a.943.943,0,0,1,.523-.551c.895-.366,3.1-.917,4.232,1.915,1.274,3.211-3.8,6.833-4.922,7.583a.935.935,0,0,0-.323.371c-.133.274-.387.775-.761,1.419v0l-.813,3.181c-.232.907-.334,7.621-.334,7.621S56.86,184.4,56.078,175.613C55,163.455,48.609,169.208,47.636,164.5s-8.292-6.576-13.075-5.6-12.887,1.416-14.828,3.81c-1.713,2.107-.732,6.176.336,9.712Z" transform="translate(132.256 -108.634)" fill="#06112d"/>
      <ellipse id="Ellipse_304" data-name="Ellipse 304" cx="1.061" cy="1.591" rx="1.061" ry="1.591" transform="translate(166.489 76.546) rotate(-177.377)" fill="#06112d"/>
      <path id="Path_144311" data-name="Path 144311" d="M58.422,196.629a.289.289,0,0,0,.18-.515c-2.057-1.64-3.351-.514-3.4-.465a.289.289,0,1,0,.385.43c.044-.038,1.007-.832,2.66.486a.287.287,0,0,0,.18.063Z" transform="translate(108.691 -124.085)" fill="#06112d"/>
      <ellipse id="Ellipse_305" data-name="Ellipse 305" cx="1.061" cy="1.591" rx="1.061" ry="1.591" transform="translate(157.525 76.546) rotate(-177.377)" fill="#06112d"/>
      <path id="Path_144312" data-name="Path 144312" d="M73.943,196.629a.289.289,0,0,0,.18-.515c-2.057-1.64-3.35-.514-3.4-.465a.289.289,0,0,0,.385.43c.044-.038,1.007-.832,2.66.486A.287.287,0,0,0,73.943,196.629Z" transform="translate(84.205 -124.085)" fill="#06112d"/>
      <path id="Path_144313" data-name="Path 144313" d="M59.481,210.169a.289.289,0,0,0,.192-.5,1.4,1.4,0,0,1-.487-1.006,1.352,1.352,0,0,1,.408-1,4.2,4.2,0,0,1,.418-.348c.1-.078.2-.156.3-.238a4.022,4.022,0,0,0,1.32-2.338,9.764,9.764,0,0,0,.061-2.476.289.289,0,1,0-.576.035,9.3,9.3,0,0,1-.052,2.331,3.448,3.448,0,0,1-1.126,2.008c-.089.076-.183.148-.277.219a4.672,4.672,0,0,0-.475.4,1.923,1.923,0,0,0-.576,1.425,1.974,1.974,0,0,0,.68,1.42.289.289,0,0,0,.192.073Zm2.645,4.4a4.261,4.261,0,0,0,3.48-1.854.289.289,0,1,0-.48-.321A3.675,3.675,0,0,1,62,213.993a.289.289,0,0,0-.021.578l.144,0Z" transform="translate(99.714 -126.941)" fill="#f18b89"/>
      <path id="Path_144314" data-name="Path 144314" d="M16.766,304.082l2.8,15.1,14.269.574,24.576,1c-.243-6.586-.465-14.708-.211-17.608.552-6.31,3.025-15.5,4.4-24.16L51.762,266.366a60.6,60.6,0,0,0-4.188,10.573c-1.082,4.486-1.84,19.961-1.84,19.961l-28.969,7.182Z" transform="translate(126.939 -154.136)" fill="#074c71"/>
      <path id="Path_144315" data-name="Path 144315" d="M103.933,332.686s-9.457-6.815-11.045-5.8c-1.568,1,2.573,5.946,2.573,5.946" transform="translate(41.848 -179.655)" fill="#fec3bd"/>
      <path id="Path_144316" data-name="Path 144316" d="M104.943,318.135H103.4L107.985,344h1.54a1.893,1.893,0,0,0,1.91-2.322l-3.758-21.213a2.894,2.894,0,0,0-2.734-2.326Z" transform="translate(28.032 -176.004)" fill="#06112d"/>
      <path id="Path_144317" data-name="Path 144317" d="M122.628,320.461l3.759,21.213a1.893,1.893,0,0,1-1.91,2.322H112.463a2.893,2.893,0,0,1-2.733-2.322l-3.759-21.213a1.893,1.893,0,0,1,1.909-2.326h12.013A2.894,2.894,0,0,1,122.628,320.461Z" transform="translate(11.618 -176.004)" fill="#0e1738"/>
      <path id="Path_144318" data-name="Path 144318" d="M101.291,337.019c-1.116-.127-9.42-1.059-8.867,1.02.2.755,1.845,1.623,2.579,1.8-2.265.064-5.477.76-5.264,1.794.3,1.439,3.048,1.292,4.007,1.2-.975.132-3.769.631-3.189,1.978.352.82,3.718,1.063,4.777,1.1-.77.253-3.7.922-2.377,2.273,1.7,1.738,18.427-.781,18.427-.781l-1.62-10.525" transform="translate(36.019 -183.846)" fill="#fec3bd"/>
      <path id="Path_144319" data-name="Path 144319" d="M55.785,305.1c-5.411,5.364-43.986,7.8-43.986,7.8L9,297.8l31.846-5.935s-.291-20.72,1.368-27.306A20.121,20.121,0,0,1,52.145,251.5c.734.85,4.974,3.274,5.735,11.7,1.3,14.371,3.255,36.593-2.095,41.9Z" transform="translate(134.704 -147.857)" fill="#006499"/>
    </g>
    <g id="no-internet" transform="translate(137.696 235.197)">
      <path id="Path_144541" data-name="Path 144541" d="M62.565,16.419a28.006,28.006,0,0,0-39.558,0l-2.594-2.594a31.676,31.676,0,0,1,44.746,0Z" fill="#26847d"/>
      <path id="Path_144542" data-name="Path 144542" d="M56.27,21.751a19.657,19.657,0,0,0-27.767,0l-2.594-2.594a23.33,23.33,0,0,1,32.955,0Z" transform="translate(0.399 0.563)" fill="#26847d"/>
      <path id="Path_144543" data-name="Path 144543" d="M49.976,27.083a11.311,11.311,0,0,0-15.976,0l-2.594-2.594a14.98,14.98,0,0,1,21.164,0Z" transform="translate(0.797 1.127)" fill="#26847d"/>
      <circle id="Ellipse_330" data-name="Ellipse 330" cx="4.794" cy="4.794" r="4.794" transform="translate(37.991 31.404)" fill="#26847d"/>
      <g id="Group_53637" data-name="Group 53637" transform="translate(52.729 7.386)">
        <path id="Path_144544" data-name="Path 144544" d="M68.622,16.228A9.038,9.038,0,1,1,59.577,7.2,9.039,9.039,0,0,1,68.622,16.228Z" transform="translate(-50.545 -7.196)" fill="#af3131"/>
      </g>
      <g id="Group_53638" data-name="Group 53638" transform="translate(57.533 12.184)">
        <path id="Path_144545" data-name="Path 144545" d="M63.254,18.736a.827.827,0,0,1,0,1.163.838.838,0,0,1-1.172,0l-2.823-2.823L56.426,19.9a.822.822,0,0,1-1.163-1.163L58.086,15.9l-2.823-2.823a.838.838,0,0,1,0-1.172.827.827,0,0,1,1.163,0l2.832,2.833,2.823-2.833a.829.829,0,0,1,1.172,1.172L60.422,15.9Z" transform="translate(-55.024 -11.669)" fill="#fff"/>
      </g>
    </g>
  </g>
</svg>
