<svg xmlns="http://www.w3.org/2000/svg" width="126.488" height="31.883" viewBox="0 0 126.488 31.883">
  <g id="Group_52002" data-name="Group 52002" transform="translate(-221.487 -269.435)">
    <path id="Path_142331" data-name="Path 142331" d="M1748.244,643.33h33.929s.72-2.806-2.7-3.767-5.31.545-5.31.545,2.34-7.449-4.77-10.158-12.87,3.862-13.68,6.3a17.14,17.14,0,0,0-.9,3.858S1750.224,637.483,1748.244,643.33Zm97.725-15.387c3.319-.532,4.582,1.378,4.582,1.378s-.117-3.26,2-4.232a2.6,2.6,0,0,1,3.278.619s-.138-6.649,6.851-5.478,6.52,10.957,6.52,10.957.756-2.307,3.507-1.173,1.909,4.966,1.909,4.966l-32.5.2S1842.65,628.475,1845.969,627.943Z" transform="translate(-1526.757 -342.011)" fill="#d3e5ef"/>
    <g id="Group_51875" data-name="Group 51875" transform="translate(265.776 269.435)">
      <path id="Path_142355" data-name="Path 142355" d="M2425.759,344.844h19.718a2.576,2.576,0,0,0,2.465-1.823c.585-1.921.888-4.866-1.988-6.328-4.479-2.277-7.784,4.076-7.784,4.076s-.661-2.24-3.378-1.432a4.073,4.073,0,0,0-2.937,3.378S2426.45,337.706,2425.759,344.844Z" transform="translate(-2425.759 -336.2)" fill="#d3e5ef"/>
    </g>
  </g>
</svg>
